PathFileType	4	(X/Y/Z)	C:\Github\BTS_project\Data\sports2d_results\Single_Hop4 Exam_2026-03-06_123833_tvc2_Sports2D\Single_Hop4 Exam_2026-03-06_123833_tvc2_Sports2D_m_person00.trc
DataRate	CameraRate	NumFrames	NumMarkers	Units	OrigDataRate	OrigDataStartFrame	OrigNumFrames
30.0	30.0	8	22	m	30.0	34	278
Frame#	Time	Hip			RHip			RKnee			RAnkle			RBigToe			RSmallToe			RHeel			LHip			LKnee			LAnkle			LBigToe			LSmallToe			LHeel			Neck			Head			Nose			RShoulder			RElbow			RWrist			LShoulder			LElbow			LWrist			
		X1	Y1	Z1	X2	Y2	Z2	X3	Y3	Z3	X4	Y4	Z4	X5	Y5	Z5	X6	Y6	Z6	X7	Y7	Z7	X8	Y8	Z8	X9	Y9	Z9	X10	Y10	Z10	X11	Y11	Z11	X12	Y12	Z12	X13	Y13	Z13	X14	Y14	Z14	X15	Y15	Z15	X16	Y16	Z16	X17	Y17	Z17	X18	Y18	Z18	X19	Y19	Z19	X20	Y20	Z20	X21	Y21	Z21	X22	Y22	Z22
34	1.137424789410349	1.1885260288225663	0.6550607012559833	0.0301	1.106055640498311	0.5800887997390937	0.0301	1.37328824203648	0.2799116369090698	0.129	1.6323322035045533	-0.00559848176220425	0.023	1.6752753130329257	-0.10253451621692253	0.2179	1.6331152215525115	-0.12432489856072915	0.1804	1.68160381112553	-0.029525715143683153	-0.0119	1.274284428439865	0.728863613871045	0.0301	1.550153631038158	0.44198370278260957	0.129	1.8150243501159309	0.1534145365806258	0.023	1.890633101361507	0.06987827265794469	0.2179	1.9260573118784614	0.12390011790032185	0.1804	1.836233494140013	0.10562730471916515	-0.0119	0.8272169678727379	1.0947828513369795	0.0008	0.679584281667972	1.3223548056905565	0.0655	0.7997995318041956	1.1682524723731922	0.1076	0.6784700356486237	0.9431999704807715	-0.01275	0.6736205285316466	0.7059080161657999	0.0702	0.8851935650376567	0.5867581309779096	0.1076	0.998525041210358	1.198669036861349	-0.01275	1.2263543094741385	1.173831470793845	0.0702	1.2790606682212307	0.9497390076878203	0.1076
35	1.1708784596871242	1.1859116329548816	0.6550009072315053	0.0301	1.1046960514923438	0.5799553781042537	0.0301	1.3716089346175249	0.2791122360636425	0.129	1.6313314681002333	-0.006116655418186198	0.023	1.6743106577902436	-0.10138870361849135	0.2179	1.6334449018148813	-0.12436812951981055	0.1804	1.6797788235153777	-0.02992964994533087	-0.0119	1.2716222139080597	0.7275329660699457	0.0301	1.5480611127812365	0.4421801399363194	0.129	1.8139309167805027	0.15569301713186304	0.023	1.8903165604049676	0.06975034305999175	0.2179	1.9270987968618896	0.12338565167022512	0.1804	1.834856373105277	0.10599707972731025	-0.0119	0.821332699224647	1.0953710817111937	0.0008	0.6757980704852782	1.317433701851598	0.0655	0.7969594180227121	1.164326062586295	0.1076	0.6754478304940855	0.9387190252839608	-0.01275	0.67148486068026	0.7028604095454464	0.0702	0.8853747377159745	0.5848980082247144	0.1076	0.9940603083860221	1.1954144999739067	-0.01275	1.2200609753599907	1.171537730289586	0.0702	1.2752486664385634	0.9514788980722955	0.1076
36	1.2043321299638992	1.1838292370367778	0.6570699722353821	0.0301	1.1040596550250825	0.5801817358188424	0.0301	1.3695563584612753	0.27897970752358836	0.129	1.6293749701202693	-0.0058295512385756	0.023	1.675658090591098	-0.09857819383369061	0.2179	1.633996905058657	-0.12468687672758406	0.1804	1.6779067533903096	-0.030309638072566033	-0.0119	1.2703829087786052	0.7274984721265495	0.0301	1.5474558273045074	0.4436306275845324	0.129	1.8141194723140115	0.15833961633022703	0.023	1.8910714492586056	0.07068710198281303	0.2179	1.9293182401995659	0.12281765882144503	0.1804	1.8348726297964149	0.10730087695475646	-0.0119	0.8160034226479379	1.095789997957893	0.0008	0.6723770613707424	1.314675544032405	0.0655	0.7941991454259392	1.1624913925905789	0.1076	0.6728290131346628	0.9361511016091963	-0.01275	0.6710541700655482	0.6995915499401174	0.0702	0.886340257908855	0.5829118093957851	0.1076	0.9897492929711149	1.1924790742333846	-0.01275	1.2158648202342717	1.1691149743292402	0.0702	1.2741076598234715	0.9542134522283634	0.1076
37	1.237785800240674	1.182379474588887	0.6598663436276677	0.0301	1.1047888358364897	0.580416511842873	0.0301	1.3679578852707688	0.28034237653232424	0.129	1.6279253729528147	-0.005109823653686578	0.023	1.6774237376908754	-0.09648163961715309	0.2179	1.633484598273625	-0.12413344544964744	0.1804	1.6771768521303418	-0.0298164272782757	-0.0119	1.2698703995335148	0.7282590805383437	0.0301	1.5472724531565445	0.44623816420477475	0.129	1.816101243179591	0.1594733983039507	0.023	1.8936700957364652	0.07216316612384222	0.2179	1.9311579018297762	0.12176653037807064	0.1804	1.8366878256721075	0.10982184250759677	-0.0119	0.8122026131553819	1.0952072500114107	0.0008	0.6692170109178046	1.3148640297929608	0.0655	0.7913449481241719	1.1633694931146132	0.1076	0.6714604409194033	0.9354562725414151	-0.01275	0.6712185540903488	0.697572762611724	0.0702	0.8866491445062535	0.5812725782344168	0.1076	0.9857684239287933	1.1910360435800196	-0.01275	1.2148748255908315	1.1669999804130433	0.0702	1.2743221604771164	0.9569032017230128	0.1076
38	1.271239470517449	1.182886088687556	0.6618880203101841	0.0301	1.1058995225119617	0.5810334655717583	0.0301	1.3683870507685394	0.2814154207146192	0.129	1.6278470777371405	-0.004896250627447705	0.023	1.6782075382573944	-0.09616683703691702	0.2179	1.632659482326964	-0.12324380265162331	0.1804	1.6771940001650736	-0.029095653069287426	-0.0119	1.2702787732630052	0.7296071386875932	0.0301	1.547568303101936	0.44819523427058633	0.129	1.8187971507269942	0.1583812746520407	0.023	1.8963715974879702	0.07187351266188646	0.2179	1.9318817713929972	0.12030854049870764	0.1804	1.8385587028298414	0.11150520516726159	-0.0119	0.8115284833436954	1.09473006204297	0.0008	0.6661831803240154	1.3184070725068364	0.0655	0.7887915707653245	1.1670953353715512	0.1076	0.6713185932967426	0.9358528679727972	-0.01275	0.6717681600452707	0.6966971442066796	0.0702	0.8869333734857634	0.5809075619930865	0.1076	0.9834121971338047	1.1914769583989164	-0.01275	1.215788178757167	1.1660861505658437	0.0702	1.2749983399110623	0.9592655006349106	0.1076
39	1.3046931407942242	1.1854010627964637	0.6627546176420925	0.0301	1.1060459924594184	0.5830026128561584	0.0301	1.370182860329246	0.281214524042677	0.129	1.6282130862917936	-0.005000841083708557	0.023	1.6779371074812541	-0.09686714196464559	0.2179	1.6333927211088621	-0.1235042356733392	0.1804	1.6772161996055457	-0.0292972613523399	-0.0119	1.2719186389566717	0.7317583283898863	0.0301	1.5488978405407063	0.4485449119231039	0.129	1.8204922794604446	0.15608101766479845	0.023	1.8976221747744777	0.06978519115652743	0.2179	1.9318434014410242	0.11899752391363587	0.1804	1.838894991407873	0.11097723438597551	-0.0119	0.8139185736443121	1.094632331639715	0.0008	0.663976184797418	1.3240227859665623	0.0655	0.7870314305419592	1.1723837550777092	0.1076	0.6719636356806822	0.9370035305484424	-0.01275	0.6728548192658032	0.696694250511148	0.0702	0.8882779507331594	0.5821618884641792	0.1076	0.9837781708972881	1.1926910289945145	-0.01275	1.217187979351915	1.1665432342085165	0.0702	1.276467435658179	0.960866044247957	0.1076
40	1.338146811070999	1.1883763159548735	0.6629856597279987	0.0301	1.1062336933570198	0.5864065146738998	0.0301	1.3715367244942893	0.28126629722767044	0.129	1.6286248854501328	-0.005008230765380004	0.023	1.676553224398833	-0.09800257077913753	0.2179	1.6351716321913965	-0.12463637944297251	0.1804	1.677971350194687	-0.030316011628007608	-0.0119	1.2740226335383338	0.7342979823254785	0.0301	1.5509624091717944	0.4475722777129518	0.129	1.820565920076516	0.15401636458632575	0.023	1.89757705008346	0.06788940372225326	0.2179	1.9314427765386037	0.11818871675087013	0.1804	1.8381958304339483	0.10946897659432873	-0.0119	0.8166761359046335	1.0952678934787918	0.0008	0.6639499827271612	1.328784044708313	0.0655	0.7864961628622026	1.177632387300935	0.1076	0.6736833342826929	0.9389353655358805	-0.01275	0.6741067370953358	0.6985197007127788	0.0702	0.8903846283376193	0.5851211213670672	0.1076	0.9858140746864155	1.1944667798393311	-0.01275	1.2193026034447	1.168070923632358	0.0702	1.2788167856979535	0.9612078065725206	0.1076
41	1.371600481347774	1.1910286911593868	0.6637538640970696	0.0301	1.1081581804289575	0.59053034862748	0.0301	1.3726868479392005	0.282369227789147	0.129	1.6295438495143602	-0.0054892949671280595	0.023	1.6750321128036725	-0.09912496722102355	0.2179	1.636005936050997	-0.1254674023909761	0.1804	1.6798669324984086	-0.03147745937836487	-0.0119	1.275730215616559	0.7369263362593574	0.0301	1.5532130737685592	0.44617699587497683	0.129	1.8200778255136616	0.1525997524614354	0.023	1.8970289487035394	0.06710605702981196	0.2179	1.9310806010361867	0.11805464283584255	0.1804	1.8381735188962574	0.10829052462742887	-0.0119	0.8180767095051265	1.0983628189774874	0.0008	0.6664160930696575	1.3319408687236913	0.0655	0.7873884177979028	1.183063158765328	0.1076	0.6769035765312997	0.9420034328143503	-0.01275	0.6761576637739469	0.702251893185775	0.0702	0.8930857063525723	0.5893643921125233	0.1076	0.9884131010102685	1.1975741699615037	-0.01275	1.2228285781670845	1.1711107766887767	0.0702	1.2818052554874584	0.9609794372456479	0.1076
